<?xml version="1.0" encoding="UTF-8" standalone="no"?>
<!DOCTYPE svg PUBLIC "-//W3C//DTD SVG 1.1//EN" "http://www.w3.org/Graphics/SVG/1.1/DTD/svg11.dtd">
<svg width="100%" height="100%" viewBox="0 0 1547 1775" version="1.1" xmlns="http://www.w3.org/2000/svg" xmlns:xlink="http://www.w3.org/1999/xlink" xml:space="preserve" xmlns:serif="http://www.serif.com/" style="fill-rule:evenodd;clip-rule:evenodd;stroke-linejoin:round;stroke-miterlimit:2;">
    <g transform="matrix(1,0,0,1,-2008.03,0)">
        <g id="White" transform="matrix(1,0,0,1,1282.3,-611.93)">
            <rect x="725.723" y="611.93" width="1546.85" height="1774.18" style="fill:none;"/>
            <clipPath id="_clip1">
                <rect x="725.723" y="611.93" width="1546.85" height="1774.18"/>
            </clipPath>
            <g clip-path="url(#_clip1)">
                <g id="Layer-1" serif:id="Layer 1" transform="matrix(4.16667,0,0,4.16667,0.7225,0.93)">
                    <g>
                        <g transform="matrix(1,0,0,1,483.107,349.521)">
                            <path d="M0,108.388L14.174,74.022L62.309,66.588L62.195,6.96L13.074,0.049L-0.803,-33.295L27.627,-72.105L-14.088,-113.664L-60.944,-78.363L-63.174,-63.044L-68.197,-28.562C-57.998,-20.052 -49.807,-9.239 -44.357,3.061L-42.75,6.938C-39.004,16.639 -36.924,27.169 -36.924,38.194C-36.924,58.222 -43.709,76.651 -55.082,91.349L-70.728,106.995C-74.882,110.208 -79.334,113.051 -84.036,115.481L-97.629,121.113C-105.913,123.73 -114.73,125.154 -123.88,125.154C-133.058,125.154 -141.899,123.723 -150.205,121.087L-163.665,115.51C-168.08,113.235 -172.282,110.606 -176.216,107.637L-193.32,90.532C-204.312,75.97 -210.837,57.847 -210.837,38.194C-210.837,27.6 -208.937,17.451 -205.466,8.068L-203.112,2.385C-199.887,-4.734 -195.736,-11.343 -190.803,-17.285L-179.418,-28.669C-178.34,-29.566 -177.25,-30.451 -176.128,-31.295L-176.22,-31.865L-176.219,-31.868L-181.114,-62.503L-183.675,-78.535L-183.837,-79.546L-231.908,-114.758L-273.467,-73.041L-244.93,-35.164L-259.53,0.241L-258.473,0.905L-308.934,8.697L-308.819,67.643L-262.042,74.224L-247.598,108.935L-246.403,108.659L-274.888,147.545L-233.172,189.104L-195.518,160.738L-195.57,160.975L-159.97,175.655L-159.729,175.27L-152.337,223.146L-93.453,223.033L-86.736,175.278L-51.307,160.535L-13.43,188.279L28.125,146.561L-0.756,108.224L0,108.388Z" style="fill:white;fill-rule:nonzero;"/>
                        </g>
                        <g transform="matrix(1,0,0,1,360.041,177.801)">
                            <path d="M0,232.484C-10.689,232.484 -19.355,223.817 -19.355,213.131C-19.355,202.439 -10.689,193.776 0,193.776C10.688,193.776 19.354,202.439 19.354,213.131C19.354,223.817 10.688,232.484 0,232.484M-17.594,162.693C-37.945,169.671 -52.596,188.925 -52.596,211.643C-52.596,240.236 -29.41,263.422 -0.811,263.422C27.786,263.422 50.97,240.236 50.97,211.643C50.97,189.552 37.111,170.743 17.638,163.303L36.557,51.845L65.051,51.845L3.494,-30.938L-65.29,51.845L-37.562,51.845L-17.594,162.693Z" style="fill:white;fill-rule:nonzero;"/>
                        </g>
                    </g>
                </g>
            </g>
        </g>
    </g>
</svg>
